<svg viewBox="0,0,1000,1000" style="-webkit-tap-highlight-color: rgba(0, 0, 0, 0);" xmlns="http://www.w3.org/2000/svg" xmlns:xlink="http://www.w3.org/1999/xlink"><g><polyline points="0 0, 0 402.6181133333333, 3 410.1181133333333, 0 417.6181133333333, 0 830.7982166666667, 15 830.7982166666667, 15 417.6181133333333, 12 410.1181133333333, 15 402.6181133333333, 15 0, 0 0" style="fill: rgb(255, 255, 255); stroke: black;"><title>1</title></polyline><text x="7.5" y="845.7982166666667" text-anchor="middle" style="font-size: 12px;">1</text><polyline points="35 0, 35 305.2539033333333, 38 312.7539033333333, 35 320.2539033333333, 35 810.6645766666667, 50 810.6645766666667, 50 320.2539033333333, 47 312.7539033333333, 50 305.2539033333333, 50 0, 35 0" style="fill: rgb(255, 255, 255); stroke: black;"><title>2</title></polyline><text x="42.5" y="825.6645766666667" text-anchor="middle" style="font-size: 12px;">2</text><polyline points="70 0, 70 299.18284666666665, 73 306.68284666666665, 70 314.18284666666665, 70 664.70577, 85 664.70577, 85 314.18284666666665, 82 306.68284666666665, 85 299.18284666666665, 85 0, 70 0" style="fill: rgb(255, 255, 255); stroke: black;"><title>3</title></polyline><text x="77.5" y="679.70577" text-anchor="middle" style="font-size: 12px;">3</text><polyline points="105 0, 105 163.03372333333334, 108 170.53372333333334, 105 178.03372333333334, 105 637.5075666666667, 120 637.5075666666667, 120 178.03372333333334, 117 170.53372333333334, 120 163.03372333333334, 120 0, 105 0" style="fill: rgb(255, 255, 255); stroke: black;"><title>4</title></polyline><text x="112.5" y="652.5075666666667" text-anchor="middle" style="font-size: 12px;">4</text><polyline points="140 0, 140 152.18547, 143 159.68547, 140 167.18547, 140 603.0508666666667, 155 603.0508666666667, 155 167.18547, 152 159.68547, 155 152.18547, 155 0, 140 0" style="fill: rgb(255, 255, 255); stroke: black;"><title>5</title></polyline><text x="147.5" y="618.0508666666667" text-anchor="middle" style="font-size: 12px;">5</text><polyline points="175 0, 175 193.60055333333332, 178 201.10055333333332, 175 208.60055333333332, 175 570.3835566666667, 190 570.3835566666667, 190 208.60055333333332, 187 201.10055333333332, 190 193.60055333333332, 190 0, 175 0" style="fill: rgb(255, 255, 255); stroke: black;"><title>6</title></polyline><text x="182.5" y="585.3835566666667" text-anchor="middle" style="font-size: 12px;">6</text><polyline points="210 0, 210 191.01443666666665, 213 198.51443666666665, 210 206.01443666666665, 210 530.46221, 225 530.46221, 225 206.01443666666665, 222 198.51443666666665, 225 191.01443666666665, 225 0, 210 0" style="fill: rgb(255, 255, 255); stroke: black;"><title>7</title></polyline><text x="217.5" y="545.46221" text-anchor="middle" style="font-size: 12px;">7</text><polyline points="245 0, 245 143.62962333333334, 248 151.12962333333334, 245 158.62962333333334, 245 487.8800733333333, 260 487.8800733333333, 260 158.62962333333334, 257 151.12962333333334, 260 143.62962333333334, 260 0, 245 0" style="fill: rgb(255, 255, 255); stroke: black;"><title>8</title></polyline><text x="252.5" y="502.8800733333333" text-anchor="middle" style="font-size: 12px;">8</text><polyline points="280 0, 280 155.39226333333335, 283 162.89226333333335, 280 170.39226333333335, 280 470.71143666666666, 295 470.71143666666666, 295 170.39226333333335, 292 162.89226333333335, 295 155.39226333333335, 295 0, 280 0" style="fill: rgb(255, 255, 255); stroke: black;"><title>9</title></polyline><text x="287.5" y="485.71143666666666" text-anchor="middle" style="font-size: 12px;">9</text><polyline points="315 0, 315 128.34978333333333, 318 135.84978333333333, 315 143.34978333333333, 315 451.78249, 330 451.78249, 330 143.34978333333333, 327 135.84978333333333, 330 128.34978333333333, 330 0, 315 0" style="fill: rgb(255, 255, 255); stroke: black;"><title>10</title></polyline><text x="322.5" y="466.78249" text-anchor="middle" style="font-size: 12px;">10</text><polyline points="350 0, 350 169.64735, 353 177.14735, 350 184.64735, 350 450.02172, 365 450.02172, 365 184.64735, 362 177.14735, 365 169.64735, 365 0, 350 0" style="fill: rgb(255, 255, 255); stroke: black;"><title>11</title></polyline><text x="357.5" y="465.02172" text-anchor="middle" style="font-size: 12px;">11</text><polyline points="385 0, 385 113.68898, 388 121.18898, 385 128.68898000000002, 385 446.1729833333333, 400 446.1729833333333, 400 128.68898000000002, 397 121.18898, 400 113.68898, 400 0, 385 0" style="fill: rgb(255, 255, 255); stroke: black;"><title>12</title></polyline><text x="392.5" y="461.1729833333333" text-anchor="middle" style="font-size: 12px;">12</text><polyline points="420 0, 420 50.833333333333336, 423 58.333333333333336, 420 65.83333333333334, 420 383.8995933333333, 435 383.8995933333333, 435 65.83333333333334, 432 58.333333333333336, 435 50.833333333333336, 435 0, 420 0" style="fill: rgb(255, 255, 255); stroke: black;"><title>13</title></polyline><text x="427.5" y="398.8995933333333" text-anchor="middle" style="font-size: 12px;">13</text><polyline points="455 0, 455 50.833333333333336, 458 58.333333333333336, 455 65.83333333333334, 455 357.8318, 470 357.8318, 470 65.83333333333334, 467 58.333333333333336, 470 50.833333333333336, 470 0, 455 0" style="fill: rgb(255, 255, 255); stroke: black;"><title>14</title></polyline><text x="462.5" y="372.8318" text-anchor="middle" style="font-size: 12px;">14</text><polyline points="490 0, 490 54.166666666666664, 493 61.666666666666664, 490 69.16666666666666, 490 341.77130666666665, 505 341.77130666666665, 505 69.16666666666666, 502 61.666666666666664, 505 54.166666666666664, 505 0, 490 0" style="fill: rgb(255, 255, 255); stroke: black;"><title>15</title></polyline><text x="497.5" y="356.77130666666665" text-anchor="middle" style="font-size: 12px;">15</text><polyline points="525 0, 525 115.28600333333333, 528 122.78600333333333, 525 130.28600333333333, 525 301.18251, 540 301.18251, 540 130.28600333333333, 537 122.78600333333333, 540 115.28600333333333, 540 0, 525 0" style="fill: rgb(255, 255, 255); stroke: black;"><title>16</title></polyline><text x="532.5" y="316.18251" text-anchor="middle" style="font-size: 12px;">16</text><polyline points="560 0, 560 71.71002, 563 79.21002, 560 86.71002, 560 270.6507, 575 270.6507, 575 86.71002, 572 79.21002, 575 71.71002, 575 0, 560 0" style="fill: rgb(255, 255, 255); stroke: black;"><title>17</title></polyline><text x="567.5" y="285.6507" text-anchor="middle" style="font-size: 12px;">17</text><polyline points="595 0, 595 49.03632666666667, 598 56.53632666666667, 595 64.03632666666667, 595 260.25749333333334, 610 260.25749333333334, 610 64.03632666666667, 607 56.53632666666667, 610 49.03632666666667, 610 0, 595 0" style="fill: rgb(255, 255, 255); stroke: black;"><title>18</title></polyline><text x="602.5" y="275.25749333333334" text-anchor="middle" style="font-size: 12px;">18</text><polyline points="630 0, 630 79.77260666666666, 633 87.27260666666666, 630 94.77260666666666, 630 215.6852, 645 215.6852, 645 94.77260666666666, 642 87.27260666666666, 645 79.77260666666666, 645 0, 630 0" style="fill: rgb(255, 255, 255); stroke: black;"><title>19</title></polyline><text x="637.5" y="230.6852" text-anchor="middle" style="font-size: 12px;">19</text><polyline points="665 0, 665 85.39856333333333, 668 92.89856333333333, 665 100.39856333333333, 665 210.08506666666668, 680 210.08506666666668, 680 100.39856333333333, 677 92.89856333333333, 680 85.39856333333333, 680 0, 665 0" style="fill: rgb(255, 255, 255); stroke: black;"><title>20</title></polyline><text x="672.5" y="225.08506666666668" text-anchor="middle" style="font-size: 12px;">20</text><polyline points="700 0, 700 35.12709666666667, 703 42.62709666666667, 700 50.12709666666667, 700 160.43298333333334, 715 160.43298333333334, 715 50.12709666666667, 712 42.62709666666667, 715 35.12709666666667, 715 0, 700 0" style="fill: rgb(255, 255, 255); stroke: black;"><title>21</title></polyline><text x="707.5" y="175.43298333333334" text-anchor="middle" style="font-size: 12px;">21</text><polyline points="735 0, 735 40.833333333333336, 738 48.333333333333336, 735 55.833333333333336, 735 171.01522, 750 171.01522, 750 55.833333333333336, 747 48.333333333333336, 750 40.833333333333336, 750 0, 735 0" style="fill: rgb(255, 255, 255); stroke: black;"><title>22</title></polyline><text x="742.5" y="186.01522" text-anchor="middle" style="font-size: 12px;">22</text><polyline points="770 0, 770 192.94004, 773 200.44004, 770 207.94004, 770 517.5685333333333, 785 517.5685333333333, 785 207.94004, 782 200.44004, 785 192.94004, 785 0, 770 0" style="fill: rgb(255, 255, 255); stroke: black;"><title>X</title></polyline><text x="777.5" y="532.5685333333333" text-anchor="middle" style="font-size: 12px;">X</text><polyline points="805 0, 805 31.181843333333333, 808 38.68184333333333, 805 46.18184333333333, 805 197.91188666666667, 820 197.91188666666667, 820 46.18184333333333, 817 38.68184333333333, 820 31.181843333333333, 820 0, 805 0" style="fill: rgb(255, 255, 255); stroke: black;"><title>Y</title></polyline><text x="812.5" y="212.91188666666667" text-anchor="middle" style="font-size: 12px;">Y</text><line x1="0" x2="15" y1="43.06963666666667" y2="43.06963666666667" stroke="green"/><line x1="0" x2="15" y1="43.06964" y2="43.06964" stroke="green"/><line x1="0" x2="15" y1="656.2956766666666" y2="656.2956766666666" stroke="green"/><line x1="350" x2="365" y1="4.158496666666666" y2="4.158496666666666" stroke="green"/><line x1="350" x2="365" y1="60.182383333333334" y2="60.182383333333334" stroke="green"/><line x1="350" x2="365" y1="138.96420666666666" y2="138.96420666666666" stroke="green"/><line x1="385" x2="400" y1="104.18857" y2="104.18857" stroke="green"/><line x1="455" x2="470" y1="227.48951666666667" y2="227.48951666666667" stroke="green"/><line x1="455" x2="470" y1="351.3942" y2="351.3942" stroke="green"/><line x1="0" x2="15" y1="478.30572666666666" y2="478.30572666666666" stroke="green"/><line x1="105" x2="120" y1="0.6330166666666667" y2="0.6330166666666667" stroke="green"/><line x1="490" x2="505" y1="151.29250666666667" y2="151.29250666666667" stroke="green"/><line x1="490" x2="505" y1="151.43885" y2="151.43885" stroke="green"/><line x1="490" x2="505" y1="341.0105" y2="341.0105" stroke="green"/><line x1="525" x2="540" y1="249.59231" y2="249.59231" stroke="green"/><line x1="560" x2="575" y1="193.93359666666666" y2="193.93359666666666" stroke="green"/><line x1="560" x2="575" y1="266.55858333333333" y2="266.55858333333333" stroke="green"/><line x1="560" x2="575" y1="0.12887666666666667" y2="0.12887666666666667" stroke="green"/><line x1="595" x2="610" y1="0.33314333333333335" y2="0.33314333333333335" stroke="green"/><line x1="595" x2="610" y1="0.33355" y2="0.33355" stroke="green"/><line x1="630" x2="645" y1="1.2375033333333334" y2="1.2375033333333334" stroke="green"/><line x1="0" x2="15" y1="480.67462666666665" y2="480.67462666666665" stroke="green"/><line x1="35" x2="50" y1="322.06671666666665" y2="322.06671666666665" stroke="green"/><line x1="35" x2="50" y1="673.3364933333334" y2="673.3364933333334" stroke="green"/><line x1="665" x2="680" y1="207.74837666666667" y2="207.74837666666667" stroke="green"/><line x1="700.8573853333334" x2="714.1426146666666" y1="37.27056" y2="37.27056" stroke="green"/><line x1="700.7455986666666" x2="714.2544013333334" y1="36.99109333333333" y2="36.99109333333333" stroke="green"/><line x1="700" x2="715" y1="50.66500333333333" y2="50.66500333333333" stroke="green"/><line x1="105" x2="120" y1="59.71277666666667" y2="59.71277666666667" stroke="green"/><line x1="105" x2="120" y1="59.712783333333334" y2="59.712783333333334" stroke="green"/><line x1="105" x2="120" y1="297.92803333333336" y2="297.92803333333336" stroke="green"/><line x1="105" x2="120" y1="636.76725" y2="636.76725" stroke="green"/><line x1="140" x2="155" y1="113.97415" y2="113.97415" stroke="green"/><line x1="210" x2="225" y1="210.70037" y2="210.70037" stroke="green"/><line x1="210" x2="225" y1="332.52814666666666" y2="332.52814666666666" stroke="green"/><line x1="210" x2="225" y1="410.8554766666667" y2="410.8554766666667" stroke="green"/><line x1="245" x2="260" y1="126.56095666666667" y2="126.56095666666667" stroke="green"/><line x1="245" x2="260" y1="368.8511233333333" y2="368.8511233333333" stroke="green"/><line x1="280" x2="295" y1="230.22683666666666" y2="230.22683666666666" stroke="green"/><line x1="280" x2="295" y1="309.98367333333334" y2="309.98367333333334" stroke="green"/><line x1="70" x2="85" y1="651.7112133333334" y2="651.7112133333334" stroke="green"/><line x1="70" x2="85" y1="651.7062566666667" y2="651.7062566666667" stroke="green"/><line x1="0" x2="15" y1="475.9901433333333" y2="475.9901433333333" stroke="green"/><line x1="805.511988" x2="819.488012" y1="44.901873333333334" y2="44.901873333333334" stroke="green"/><line x1="805" x2="820" y1="196.71921333333333" y2="196.71921333333333" stroke="green"/><line x1="0" x2="15" y1="137.70469" y2="137.70469" stroke="blue"/><line x1="0" x2="15" y1="592.9967933333334" y2="592.9967933333334" stroke="blue"/><line x1="0" x2="15" y1="606.7542366666667" y2="606.7542366666667" stroke="blue"/><line x1="315" x2="330" y1="271.06494333333336" y2="271.06494333333336" stroke="blue"/><line x1="350" x2="365" y1="16.58671" y2="16.58671" stroke="blue"/><line x1="385" x2="400" y1="165.74971" y2="165.74971" stroke="blue"/><line x1="385" x2="400" y1="242.22166333333334" y2="242.22166333333334" stroke="blue"/><line x1="420" x2="435" y1="82.84336333333333" y2="82.84336333333333" stroke="blue"/><line x1="420" x2="435" y1="82.84337" y2="82.84337" stroke="blue"/><line x1="420" x2="435" y1="83.38920666666667" y2="83.38920666666667" stroke="blue"/><line x1="420" x2="435" y1="328.83341333333334" y2="328.83341333333334" stroke="blue"/><line x1="455" x2="470" y1="248.50550666666666" y2="248.50550666666666" stroke="blue"/><line x1="105" x2="120" y1="0.4641166666666667" y2="0.4641166666666667" stroke="blue"/><line x1="490" x2="505" y1="69.55784333333334" y2="69.55784333333334" stroke="blue"/><line x1="490" x2="505" y1="78.95336666666667" y2="78.95336666666667" stroke="blue"/><line x1="525" x2="540" y1="0.6757133333333334" y2="0.6757133333333334" stroke="blue"/><line x1="525" x2="540" y1="224.90792" y2="224.90792" stroke="blue"/><line x1="560" x2="575" y1="70.67147333333334" y2="70.67147333333334" stroke="blue"/><line x1="560" x2="575" y1="141.32853666666668" y2="141.32853666666668" stroke="blue"/><line x1="630" x2="645" y1="30.062" y2="30.062" stroke="blue"/><line x1="630" x2="645" y1="141.98593333333332" y2="141.98593333333332" stroke="blue"/><line x1="630" x2="645" y1="161.53107333333332" y2="161.53107333333332" stroke="blue"/><line x1="630" x2="645" y1="169.79423666666668" y2="169.79423666666668" stroke="blue"/><line x1="630" x2="645" y1="181.61112333333332" y2="181.61112333333332" stroke="blue"/><line x1="0" x2="15" y1="477.21272" y2="477.21272" stroke="blue"/><line x1="35" x2="50" y1="112.61062" y2="112.61062" stroke="blue"/><line x1="35" x2="50" y1="321.72506" y2="321.72506" stroke="blue"/><line x1="35" x2="50" y1="326.1112033333333" y2="326.1112033333333" stroke="blue"/><line x1="665" x2="680" y1="208.86645666666666" y2="208.86645666666666" stroke="blue"/><line x1="700.8150546666667" x2="714.1849453333333" y1="37.16473333333333" y2="37.16473333333333" stroke="blue"/><line x1="700.7455986666666" x2="714.2544013333334" y1="36.99109333333333" y2="36.99109333333333" stroke="blue"/><line x1="700.723448" x2="714.276552" y1="36.935716666666664" y2="36.935716666666664" stroke="blue"/><line x1="700.8067906666666" x2="714.1932093333334" y1="48.11012" y2="48.11012" stroke="blue"/><line x1="700.759064" x2="714.240936" y1="48.229436666666665" y2="48.229436666666665" stroke="blue"/><line x1="735" x2="750" y1="82.78857" y2="82.78857" stroke="blue"/><line x1="105" x2="120" y1="233.90842666666666" y2="233.90842666666666" stroke="blue"/><line x1="105" x2="120" y1="233.90843" y2="233.90843" stroke="blue"/><line x1="0" x2="15" y1="475.6296633333333" y2="475.6296633333333" stroke="blue"/><line x1="140" x2="155" y1="111.92083" y2="111.92083" stroke="blue"/><line x1="140" x2="155" y1="376.08016" y2="376.08016" stroke="blue"/><line x1="210" x2="225" y1="208.58268333333334" y2="208.58268333333334" stroke="blue"/><line x1="210" x2="225" y1="501.28116666666665" y2="501.28116666666665" stroke="blue"/><line x1="245" x2="260" y1="41.36371666666667" y2="41.36371666666667" stroke="blue"/><line x1="280" x2="295" y1="222.21649333333335" y2="222.21649333333335" stroke="blue"/><line x1="280" x2="295" y1="151.18797666666666" y2="151.18797666666666" stroke="blue"/><line x1="280" x2="295" y1="148.47508666666667" y2="148.47508666666667" stroke="blue"/><line x1="280" x2="295" y1="316.9818633333333" y2="316.9818633333333" stroke="blue"/><line x1="280" x2="295" y1="339.40807333333333" y2="339.40807333333333" stroke="blue"/><line x1="280" x2="295" y1="466.6771233333333" y2="466.6771233333333" stroke="blue"/><line x1="805" x2="820" y1="196.72393666666667" y2="196.72393666666667" stroke="blue"/><line x1="0" x2="15" y1="11.425046666666667" y2="11.425046666666667" stroke="red"/><line x1="0" x2="15" y1="45.49372" y2="45.49372" stroke="red"/><line x1="0" x2="15" y1="509.16336" y2="509.16336" stroke="red"/><line x1="315" x2="330" y1="265.9786833333333" y2="265.9786833333333" stroke="red"/><line x1="350" x2="365" y1="25.632466666666666" y2="25.632466666666666" stroke="red"/><line x1="385" x2="400" y1="172.46795666666668" y2="172.46795666666668" stroke="red"/><line x1="455" x2="470" y1="66.99345333333333" y2="66.99345333333333" stroke="red"/><line x1="455" x2="470" y1="243.10776666666666" y2="243.10776666666666" stroke="red"/><line x1="455" x2="470" y1="324.69916666666666" y2="324.69916666666666" stroke="red"/><line x1="490" x2="505" y1="208.49534333333332" y2="208.49534333333332" stroke="red"/><line x1="525" x2="540" y1="0.22987333333333335" y2="0.22987333333333335" stroke="red"/><line x1="525" x2="540" y1="94.07541333333333" y2="94.07541333333333" stroke="red"/><line x1="525" x2="540" y1="154.76141666666666" y2="154.76141666666666" stroke="red"/><line x1="560" x2="575" y1="101.54206" y2="101.54206" stroke="red"/><line x1="560" x2="575" y1="134.23373" y2="134.23373" stroke="red"/><line x1="630" x2="645" y1="25.33596" y2="25.33596" stroke="red"/><line x1="630" x2="645" y1="38.5278" y2="38.5278" stroke="red"/><line x1="630" x2="645" y1="134.40512333333334" y2="134.40512333333334" stroke="red"/><line x1="630" x2="645" y1="158.47405333333333" y2="158.47405333333333" stroke="red"/><line x1="630" x2="645" y1="166.04197666666667" y2="166.04197666666667" stroke="red"/><line x1="35" x2="50" y1="659.1185166666667" y2="659.1185166666667" stroke="red"/><line x1="665" x2="680" y1="75.20891333333333" y2="75.20891333333333" stroke="red"/><line x1="665" x2="680" y1="203.03269666666668" y2="203.03269666666668" stroke="red"/><line x1="700.3381346666666" x2="714.6618653333334" y1="35.972433333333335" y2="35.972433333333335" stroke="red"/><line x1="700" x2="715" y1="153.52472666666668" y2="153.52472666666668" stroke="red"/><line x1="140" x2="155" y1="2.8294633333333334" y2="2.8294633333333334" stroke="red"/><line x1="140" x2="155" y1="495.60252" y2="495.60252" stroke="red"/><line x1="140" x2="155" y1="590.33074" y2="590.33074" stroke="red"/><line x1="210" x2="225" y1="255.5204" y2="255.5204" stroke="red"/><line x1="210" x2="225" y1="339.95889" y2="339.95889" stroke="red"/><line x1="245" x2="260" y1="485.9759266666667" y2="485.9759266666667" stroke="red"/><line x1="280" x2="295" y1="128.04676666666666" y2="128.04676666666666" stroke="red"/><line x1="805.5116053333334" x2="819.4883946666666" y1="44.90283" y2="44.90283" stroke="red"/><line x1="0" x2="15" y1="56.821983333333336" y2="56.821983333333336" stroke="purple"/><line x1="70" x2="85" y1="655.41913" y2="655.41913" stroke="purple"/><line x1="0" x2="15" y1="484.03107666666665" y2="484.03107666666665" stroke="purple"/><line x1="0" x2="15" y1="528.49841" y2="528.49841" stroke="purple"/><line x1="315" x2="330" y1="160.58158" y2="160.58158" stroke="purple"/><line x1="315" x2="330" y1="162.87420333333333" y2="162.87420333333333" stroke="purple"/><line x1="315" x2="330" y1="163.16053" y2="163.16053" stroke="purple"/><line x1="315" x2="330" y1="329.67146" y2="329.67146" stroke="purple"/><line x1="315" x2="330" y1="416.41535" y2="416.41535" stroke="purple"/><line x1="350" x2="365" y1="207.29976666666667" y2="207.29976666666667" stroke="purple"/><line x1="350" x2="365" y1="237.46225" y2="237.46225" stroke="purple"/><line x1="350" x2="365" y1="313.46616" y2="313.46616" stroke="purple"/><line x1="455" x2="470" y1="67.15788" y2="67.15788" stroke="purple"/><line x1="455" x2="470" y1="74.93842666666667" y2="74.93842666666667" stroke="purple"/><line x1="455" x2="470" y1="83.58875333333333" y2="83.58875333333333" stroke="purple"/><line x1="455" x2="470" y1="260.1021" y2="260.1021" stroke="purple"/><line x1="455" x2="470" y1="343.21453" y2="343.21453" stroke="purple"/><line x1="490" x2="505" y1="253.43378333333334" y2="253.43378333333334" stroke="purple"/><line x1="490" x2="505" y1="277.0106333333333" y2="277.0106333333333" stroke="purple"/><line x1="525" x2="540" y1="2.01022" y2="2.01022" stroke="purple"/><line x1="560" x2="575" y1="44.66716" y2="44.66716" stroke="purple"/><line x1="560" x2="575" y1="61.050356666666666" y2="61.050356666666666" stroke="purple"/><line x1="560" x2="575" y1="207.56941" y2="207.56941" stroke="purple"/><line x1="630" x2="645" y1="48.356813333333335" y2="48.356813333333335" stroke="purple"/><line x1="630" x2="645" y1="180.57504" y2="180.57504" stroke="purple"/><line x1="0" x2="15" y1="477.21204666666665" y2="477.21204666666665" stroke="purple"/><line x1="35" x2="50" y1="155.69269333333332" y2="155.69269333333332" stroke="purple"/><line x1="35.272838666666665" x2="49.727161333333335" y1="305.936" y2="305.936" stroke="purple"/><line x1="35" x2="50" y1="322.05745333333334" y2="322.05745333333334" stroke="purple"/><line x1="700.85944" x2="714.14056" y1="37.27569666666667" y2="37.27569666666667" stroke="purple"/><line x1="735" x2="750" y1="62.393613333333334" y2="62.393613333333334" stroke="purple"/><line x1="735" x2="750" y1="155.77896" y2="155.77896" stroke="purple"/><line x1="70" x2="85" y1="321.28977" y2="321.28977" stroke="purple"/><line x1="70" x2="85" y1="440.3522566666667" y2="440.3522566666667" stroke="purple"/><line x1="140" x2="155" y1="376.08016" y2="376.08016" stroke="purple"/><line x1="140" x2="155" y1="495.32280333333335" y2="495.32280333333335" stroke="purple"/><line x1="140" x2="155" y1="572.10068" y2="572.10068" stroke="purple"/><line x1="175" x2="190" y1="532.1836133333334" y2="532.1836133333334" stroke="purple"/><line x1="210" x2="225" y1="188.14957666666666" y2="188.14957666666666" stroke="purple"/><line x1="280" x2="295" y1="301.78052" y2="301.78052" stroke="purple"/><line x1="280" x2="295" y1="321.4456133333333" y2="321.4456133333333" stroke="purple"/><line x1="560" x2="575" y1="131.31576666666666" y2="131.31576666666666" stroke="purple"/><line x1="770" x2="785" y1="133.10785333333334" y2="133.10785333333334" stroke="purple"/><line x1="770" x2="785" y1="246.00999" y2="246.00999" stroke="purple"/><line x1="805" x2="820" y1="95.28931666666666" y2="95.28931666666666" stroke="purple"/><line x1="805" x2="820" y1="95.93569666666667" y2="95.93569666666667" stroke="purple"/><line x1="0" x2="15" y1="28.06184" y2="28.06184" stroke="pink"/><line x1="0" x2="15" y1="54.61756666666667" y2="54.61756666666667" stroke="pink"/><line x1="0" x2="15" y1="56.36787666666667" y2="56.36787666666667" stroke="pink"/><line x1="0" x2="15" y1="56.52677666666666" y2="56.52677666666666" stroke="pink"/><line x1="0" x2="15" y1="68.14184333333333" y2="68.14184333333333" stroke="pink"/><line x1="0" x2="15" y1="224.95800333333332" y2="224.95800333333332" stroke="pink"/><line x1="0" x2="15" y1="488.1688066666667" y2="488.1688066666667" stroke="pink"/><line x1="0" x2="15" y1="498.82747333333333" y2="498.82747333333333" stroke="pink"/><line x1="315" x2="330" y1="153.91522333333333" y2="153.91522333333333" stroke="pink"/><line x1="315" x2="330" y1="153.91522666666665" y2="153.91522666666665" stroke="pink"/><line x1="350" x2="365" y1="62.477153333333334" y2="62.477153333333334" stroke="pink"/><line x1="350" x2="365" y1="161.51314666666667" y2="161.51314666666667" stroke="pink"/><line x1="350" x2="365" y1="206.35458" y2="206.35458" stroke="pink"/><line x1="385" x2="400" y1="29.19361" y2="29.19361" stroke="pink"/><line x1="385" x2="400" y1="165.18273666666667" y2="165.18273666666667" stroke="pink"/><line x1="385" x2="400" y1="430.9959166666667" y2="430.9959166666667" stroke="pink"/><line x1="420" x2="435" y1="83.87203333333333" y2="83.87203333333333" stroke="pink"/><line x1="420" x2="435" y1="140.01807666666667" y2="140.01807666666667" stroke="pink"/><line x1="455" x2="470" y1="74.4771" y2="74.4771" stroke="pink"/><line x1="455" x2="470" y1="79.55716333333334" y2="79.55716333333334" stroke="pink"/><line x1="455" x2="470" y1="184.84718333333333" y2="184.84718333333333" stroke="pink"/><line x1="490" x2="505" y1="77.31669666666667" y2="77.31669666666667" stroke="pink"/><line x1="490" x2="505" y1="79.51949666666667" y2="79.51949666666667" stroke="pink"/><line x1="490" x2="505" y1="84.78095" y2="84.78095" stroke="pink"/><line x1="525" x2="540" y1="2.42496" y2="2.42496" stroke="pink"/><line x1="525" x2="540" y1="295.9370833333333" y2="295.9370833333333" stroke="pink"/><line x1="560" x2="575" y1="31.597623333333335" y2="31.597623333333335" stroke="pink"/><line x1="560" x2="575" y1="31.59763" y2="31.59763" stroke="pink"/><line x1="560" x2="575" y1="0.39319" y2="0.39319" stroke="pink"/><line x1="560" x2="575" y1="0.3810766666666667" y2="0.3810766666666667" stroke="pink"/><line x1="560" x2="575" y1="0.12884333333333334" y2="0.12884333333333334" stroke="pink"/><line x1="630" x2="645" y1="134.58807" y2="134.58807" stroke="pink"/><line x1="630" x2="645" y1="146.93832333333333" y2="146.93832333333333" stroke="pink"/><line x1="35" x2="50" y1="375.38171" y2="375.38171" stroke="pink"/><line x1="35" x2="50" y1="378.2811766666667" y2="378.2811766666667" stroke="pink"/><line x1="665.17946" x2="679.82054" y1="85.84721333333333" y2="85.84721333333333" stroke="pink"/><line x1="665" x2="680" y1="202.96633333333332" y2="202.96633333333332" stroke="pink"/><line x1="700.8540173333333" x2="714.1459826666667" y1="37.26214" y2="37.26214" stroke="pink"/><line x1="700.853896" x2="714.146104" y1="37.26183666666667" y2="37.26183666666667" stroke="pink"/><line x1="700.682256" x2="714.317744" y1="36.83273666666667" y2="36.83273666666667" stroke="pink"/><line x1="700.679268" x2="714.320732" y1="36.825266666666664" y2="36.825266666666664" stroke="pink"/><line x1="70" x2="85" y1="252.39363333333333" y2="252.39363333333333" stroke="pink"/><line x1="105" x2="120" y1="257.85754333333335" y2="257.85754333333335" stroke="pink"/><line x1="140" x2="155" y1="5.31063" y2="5.31063" stroke="pink"/><line x1="175" x2="190" y1="90.72969666666667" y2="90.72969666666667" stroke="pink"/><line x1="210" x2="225" y1="255.47087666666667" y2="255.47087666666667" stroke="pink"/><line x1="210" x2="225" y1="334.50141333333335" y2="334.50141333333335" stroke="pink"/><line x1="245" x2="260" y1="76.28725" y2="76.28725" stroke="pink"/><line x1="280" x2="295" y1="228.09736666666666" y2="228.09736666666666" stroke="pink"/><line x1="280" x2="295" y1="453.61065" y2="453.61065" stroke="pink"/><line x1="280" x2="295" y1="461.3777866666667" y2="461.3777866666667" stroke="pink"/><line x1="280" x2="295" y1="465.5005566666667" y2="465.5005566666667" stroke="pink"/><line x1="350" x2="365" y1="3.6446" y2="3.6446" stroke="pink"/><line x1="175" x2="190" y1="103.18126" y2="103.18126" stroke="pink"/><line x1="0" x2="15" y1="56.524456666666666" y2="56.524456666666666" stroke="orange"/><line x1="0" x2="15" y1="74.44110666666667" y2="74.44110666666667" stroke="orange"/><line x1="0" x2="15" y1="74.44111" y2="74.44111" stroke="orange"/><line x1="0" x2="15" y1="380.83156333333335" y2="380.83156333333335" stroke="orange"/><line x1="0" x2="15" y1="488.17302333333333" y2="488.17302333333333" stroke="orange"/><line x1="315" x2="330" y1="99.40722333333333" y2="99.40722333333333" stroke="orange"/><line x1="315" x2="330" y1="156.66535333333334" y2="156.66535333333334" stroke="orange"/><line x1="315" x2="330" y1="160.58158" y2="160.58158" stroke="orange"/><line x1="315" x2="330" y1="160.88090666666668" y2="160.88090666666668" stroke="orange"/><line x1="315" x2="330" y1="172.63173" y2="172.63173" stroke="orange"/><line x1="350" x2="365" y1="209.20694666666665" y2="209.20694666666665" stroke="orange"/><line x1="350" x2="365" y1="388.97384666666665" y2="388.97384666666665" stroke="orange"/><line x1="350" x2="365" y1="434.2529533333333" y2="434.2529533333333" stroke="orange"/><line x1="385" x2="400" y1="43.84375333333333" y2="43.84375333333333" stroke="orange"/><line x1="385" x2="400" y1="136.25846666666666" y2="136.25846666666666" stroke="orange"/><line x1="420" x2="435" y1="81.57101333333334" y2="81.57101333333334" stroke="orange"/><line x1="455" x2="470" y1="249.08838333333333" y2="249.08838333333333" stroke="orange"/><line x1="490" x2="505" y1="78.68132666666666" y2="78.68132666666666" stroke="orange"/><line x1="490" x2="505" y1="166.95944333333333" y2="166.95944333333333" stroke="orange"/><line x1="560" x2="575" y1="12.77895" y2="12.77895" stroke="orange"/><line x1="560" x2="575" y1="254.85467666666668" y2="254.85467666666668" stroke="orange"/><line x1="630" x2="645" y1="7.79928" y2="7.79928" stroke="orange"/><line x1="0" x2="15" y1="56.75517" y2="56.75517" stroke="orange"/><line x1="35" x2="50" y1="596.0366333333334" y2="596.0366333333334" stroke="orange"/><line x1="35" x2="50" y1="778.0144466666667" y2="778.0144466666667" stroke="orange"/><line x1="455.3480813333333" x2="469.6519186666667" y1="64.96313" y2="64.96313" stroke="orange"/><line x1="735" x2="750" y1="70.21881666666667" y2="70.21881666666667" stroke="orange"/><line x1="70" x2="85" y1="164.00209" y2="164.00209" stroke="orange"/><line x1="70" x2="85" y1="165.74434666666667" y2="165.74434666666667" stroke="orange"/><line x1="70" x2="85" y1="171.40921" y2="171.40921" stroke="orange"/><line x1="70" x2="85" y1="501.40509" y2="501.40509" stroke="orange"/><line x1="70" x2="85" y1="653.1890866666666" y2="653.1890866666666" stroke="orange"/><line x1="70" x2="85" y1="657.9244866666667" y2="657.9244866666667" stroke="orange"/><line x1="105" x2="120" y1="13.76161" y2="13.76161" stroke="orange"/><line x1="105.86852533333334" x2="119.13147466666666" y1="165.20503666666667" y2="165.20503666666667" stroke="orange"/><line x1="105" x2="120" y1="252.24495" y2="252.24495" stroke="orange"/><line x1="105" x2="120" y1="468.83861333333334" y2="468.83861333333334" stroke="orange"/><line x1="105" x2="120" y1="491.87193333333335" y2="491.87193333333335" stroke="orange"/><line x1="140" x2="155" y1="2.6535466666666667" y2="2.6535466666666667" stroke="orange"/><line x1="140" x2="155" y1="2.6542566666666665" y2="2.6542566666666665" stroke="orange"/><line x1="140" x2="155" y1="5.24773" y2="5.24773" stroke="orange"/><line x1="140" x2="155" y1="113.94214" y2="113.94214" stroke="orange"/><line x1="140" x2="155" y1="594.73132" y2="594.73132" stroke="orange"/><line x1="175" x2="190" y1="431.5957966666667" y2="431.5957966666667" stroke="orange"/><line x1="175" x2="190" y1="477.9408466666667" y2="477.9408466666667" stroke="orange"/><line x1="210" x2="225" y1="52.41932333333333" y2="52.41932333333333" stroke="orange"/><line x1="210" x2="225" y1="189.64454666666666" y2="189.64454666666666" stroke="orange"/><line x1="210" x2="225" y1="340.98906" y2="340.98906" stroke="orange"/><line x1="210" x2="225" y1="358.6428633333333" y2="358.6428633333333" stroke="orange"/><line x1="210" x2="225" y1="389.8764433333333" y2="389.8764433333333" stroke="orange"/><line x1="245" x2="260" y1="125.18528" y2="125.18528" stroke="orange"/><line x1="245" x2="260" y1="140.85807666666668" y2="140.85807666666668" stroke="orange"/><line x1="245" x2="260" y1="140.85808333333333" y2="140.85808333333333" stroke="orange"/><line x1="70" x2="85" y1="651.7062566666667" y2="651.7062566666667" stroke="orange"/><line x1="770" x2="785" y1="78.99063333333334" y2="78.99063333333334" stroke="orange"/></g></svg>